<svg width="32" height="32" viewBox="0 0 32 32" fill="none" xmlns="http://www.w3.org/2000/svg">
  <defs>
    <linearGradient id="favGrad" x1="6" y1="4" x2="26" y2="28" gradientUnits="userSpaceOnUse">
      <stop stop-color="#7ddf7d" />
      <stop offset="1" stop-color="#4ecdc4" />
    </linearGradient>
  </defs>
  <rect width="32" height="32" rx="7" fill="#0f0f14" />
  <!-- Sensor rays -->
  <g stroke="url(#favGrad)" stroke-width="1.4" stroke-linecap="round" opacity="0.6">
    <line x1="16" y1="11" x2="16" y2="4" />
    <line x1="16" y1="11" x2="8" y2="6" />
    <line x1="16" y1="11" x2="24" y2="6" />
  </g>
  <g fill="url(#favGrad)">
    <circle cx="16" cy="4" r="1.5" />
    <circle cx="8" cy="6" r="1.5" />
    <circle cx="24" cy="6" r="1.5" />
  </g>
  <!-- Wheels -->
  <g fill="url(#favGrad)" opacity="0.8">
    <rect x="7" y="13" width="3" height="5" rx="1.5" />
    <rect x="22" y="13" width="3" height="5" rx="1.5" />
    <rect x="7" y="22" width="3" height="5" rx="1.5" />
    <rect x="22" y="22" width="3" height="5" rx="1.5" />
  </g>
  <!-- Car body (tapered toward the front) -->
  <path
    d="M16 10
       C13 10 11.2 12 11 14.5
       L10.8 25
       C10.8 27.5 12.5 29 16 29
       C19.5 29 21.2 27.5 21.2 25
       L21 14.5
       C20.8 12 19 10 16 10 Z"
    fill="url(#favGrad)"
  />
  <path d="M12.5 14.5 C13.5 13 18.5 13 19.5 14.5 L18.5 18.5 L13.5 18.5 Z" fill="#0f0f14" opacity="0.85" />
</svg>
